<?xml version="1.0" standalone="no"?>
<!DOCTYPE svg PUBLIC "-//W3C//DTD SVG 20010904//EN"
 "http://www.w3.org/TR/2001/REC-SVG-20010904/DTD/svg10.dtd">
<svg version="1.0" xmlns="http://www.w3.org/2000/svg"
 viewBox="0 0 2600.000000 2600.000000"
 preserveAspectRatio="xMidYMid meet">
<metadata>
Created by potrace 1.15, written by Peter Selinger 2001-2017
</metadata>
<g transform="translate(0.000000,2600.000000) scale(0.100000,-0.100000)"
fill="#000000" stroke="none">
<path d="M13130 21604 c-503 -28 -815 -65 -1215 -145 -1843 -368 -3484 -1402
-4621 -2911 -1265 -1680 -1781 -3794 -1434 -5879 134 -805 406 -1609 785
-2319 709 -1329 1783 -2418 3101 -3141 1443 -792 3138 -1096 4778 -858 1472
213 2821 837 3961 1829 174 152 571 551 722 727 163 190 320 387 328 412 14
44 -18 96 -65 106 -22 5 -64 -12 -202 -79 -566 -276 -1106 -433 -1728 -501
-201 -22 -675 -31 -881 -16 -787 58 -1514 278 -2189 663 -146 84 -453 290
-583 391 -268 210 -577 506 -778 747 -939 1126 -1347 2544 -1148 3995 130 954
543 1867 1180 2610 129 151 398 420 549 549 1256 1074 2939 1473 4545 1076
375 -93 658 -197 1033 -381 255 -126 267 -129 311 -88 38 36 28 82 -36 168
-460 614 -1084 1216 -1715 1657 -1147 800 -2411 1254 -3808 1369 -176 15 -751
27 -890 19z"/>
</g>
</svg>
