<?xml version="1.0" standalone="no"?>
<!DOCTYPE svg PUBLIC "-//W3C//DTD SVG 20010904//EN"
 "http://www.w3.org/TR/2001/REC-SVG-20010904/DTD/svg10.dtd">
<svg version="1.0" xmlns="http://www.w3.org/2000/svg"
 viewBox="0 0 2600.000000 2600.000000"
 preserveAspectRatio="xMidYMid meet">
<metadata>
Created by potrace 1.15, written by Peter Selinger 2001-2017
</metadata>
<g transform="translate(0.000000,2600.000000) scale(0.100000,-0.100000)"
fill="#000000" stroke="none">
<path d="M11510 23323 c-138 -6 -371 -35 -510 -63 -778 -156 -1331 -575 -1670
-1265 -189 -384 -300 -816 -355 -1375 -21 -211 -30 -731 -16 -960 5 -101 9
-185 7 -187 -2 -2 -42 44 -90 102 -461 555 -1029 949 -1611 1118 -490 142
-1032 150 -1500 22 -444 -122 -877 -379 -1190 -706 -285 -298 -488 -635 -616
-1019 -87 -265 -125 -486 -136 -790 -25 -761 224 -1628 769 -2672 54 -104 98
-191 98 -195 0 -5 -44 -23 -98 -42 -583 -203 -1099 -585 -1448 -1071 -180
-251 -288 -485 -345 -748 -30 -141 -37 -436 -15 -592 38 -256 112 -486 237
-734 245 -489 635 -952 1134 -1348 335 -266 467 -390 633 -597 307 -382 514
-775 907 -1721 343 -826 448 -1032 673 -1315 253 -318 600 -598 1152 -930 107
-64 196 -118 198 -120 1 -1 -26 -58 -61 -127 -161 -312 -230 -568 -230 -848
-1 -355 119 -631 401 -922 436 -450 1232 -794 2377 -1027 948 -194 2146 -302
3340 -302 154 0 384 -3 510 -6 605 -13 1638 69 2425 193 1912 302 3062 886
3329 1689 64 193 78 451 37 660 -57 285 -213 627 -422 927 -30 43 -54 81 -54
85 0 4 31 31 67 58 318 237 646 569 895 905 562 757 914 1695 1018 2710 32
313 40 783 18 1060 -16 205 -14 281 12 399 54 256 163 508 323 746 191 286
412 522 1082 1156 479 454 736 757 934 1101 283 493 447 1212 411 1809 -21
336 -80 585 -200 836 -125 262 -261 424 -534 637 -707 552 -1556 753 -2266
537 -275 -83 -487 -200 -804 -440 l-99 -75 7 44 c4 23 18 129 31 234 73 578
84 1143 29 1626 -138 1236 -697 2094 -1624 2494 -564 243 -1278 331 -1830 226
-330 -63 -661 -213 -930 -423 -91 -71 -279 -255 -365 -358 -312 -372 -600
-948 -781 -1561 -15 -54 -31 -98 -35 -98 -3 0 -11 39 -18 88 -20 143 -97 520
-147 715 -157 617 -387 1132 -681 1525 -96 128 -270 312 -383 407 -269 224
-614 390 -960 459 -283 57 -694 85 -1030 69z m450 -713 c265 -33 532 -123 795
-268 334 -185 622 -495 829 -892 471 -905 639 -2290 521 -4295 -24 -398 -115
-1522 -141 -1726 l-5 -46 -347 -6 c-470 -9 -777 -33 -1220 -98 -390 -57 -856
-158 -1235 -269 -95 -27 -176 -50 -179 -50 -3 0 -20 25 -38 56 -17 31 -48 74
-69 97 -29 32 -63 98 -135 265 -85 197 -96 230 -96 281 0 92 -150 611 -329
1143 -140 415 -265 736 -421 1088 -71 160 -81 191 -118 365 -75 350 -117 595
-164 950 -29 225 -32 640 -4 840 95 693 345 1317 718 1788 353 445 794 717
1258 776 96 12 283 12 380 1z m6149 -884 c195 -37 332 -83 487 -165 140 -74
242 -151 362 -276 355 -367 553 -936 602 -1725 47 -779 -85 -1809 -355 -2754
-25 -88 -45 -171 -45 -185 0 -14 -41 -92 -91 -175 -51 -83 -171 -284 -267
-446 -467 -786 -729 -1161 -1045 -1496 l-77 -81 -232 117 c-745 374 -1587 634
-2428 750 -85 11 -164 23 -176 25 -19 4 -20 9 -13 62 34 241 67 655 109 1353
93 1542 177 2208 366 2889 265 955 707 1580 1337 1889 254 125 512 197 822
232 127 14 546 5 644 -14z m-11324 -1691 c471 -54 901 -269 1288 -644 449
-435 815 -1015 1167 -1849 52 -122 85 -221 130 -395 200 -755 451 -1512 712
-2142 38 -93 72 -188 74 -210 2 -22 9 -59 15 -83 7 -23 10 -44 8 -45 -2 -2
-69 -31 -149 -66 -169 -75 -555 -265 -691 -342 -156 -88 -216 -158 -239 -278
-30 -159 73 -353 227 -427 50 -25 70 -28 148 -29 102 0 99 -1 420 170 412 219
985 446 1500 595 1083 314 2247 413 3345 285 1053 -122 2071 -471 2884 -988
137 -87 355 -240 501 -353 62 -47 133 -93 164 -104 160 -61 325 -18 451 116
76 82 103 151 98 249 -2 41 -12 86 -23 110 -28 59 -111 137 -279 260 -82 61
-160 119 -173 130 l-25 20 58 65 c131 147 329 408 471 620 174 261 315 499
628 1055 264 471 384 673 479 809 292 416 644 732 1021 917 387 190 788 249
1204 178 337 -57 587 -180 782 -386 156 -164 259 -362 320 -618 69 -291 66
-680 -7 -1063 -97 -515 -304 -904 -688 -1300 -197 -203 -310 -299 -947 -803
-417 -330 -615 -520 -747 -716 -101 -149 -202 -394 -251 -608 -61 -266 -76
-424 -76 -815 0 -295 2 -340 18 -379 32 -81 20 -530 -24 -886 -75 -609 -222
-1116 -474 -1630 -211 -430 -444 -756 -766 -1070 -324 -317 -654 -538 -1064
-715 -123 -54 -163 -78 -213 -130 -185 -193 -120 -562 115 -646 93 -33 172
-15 403 90 l140 64 58 -92 c113 -176 173 -302 216 -450 96 -330 27 -606 -213
-858 -179 -188 -415 -333 -766 -471 -757 -298 -1985 -489 -3416 -533 -198 -6
-234 -5 -291 11 -59 15 -86 16 -304 6 -295 -14 -1052 -14 -1394 -1 -2488 96
-4002 554 -4289 1298 -38 99 -51 173 -51 288 0 225 79 444 261 724 89 138 102
169 102 255 0 82 -14 119 -79 212 -75 108 -99 128 -276 235 -863 524 -1477
1194 -1918 2093 -152 310 -259 578 -400 1005 -48 146 -107 308 -130 360 -187
417 -492 755 -995 1106 -71 50 -173 120 -225 156 -535 370 -896 885 -991 1415
-26 146 -28 366 -4 498 70 396 302 752 675 1035 538 408 1291 485 2202 224
391 -111 905 -333 1196 -515 359 -223 661 -520 907 -889 183 -274 317 -532
588 -1125 85 -187 187 -407 227 -490 40 -82 80 -174 91 -203 25 -72 46 -101
159 -217 360 -371 588 -716 716 -1085 74 -213 102 -366 115 -634 12 -227 24
-275 90 -350 61 -69 149 -109 256 -114 199 -11 350 87 400 258 13 46 15 88 10
250 -4 107 -13 241 -22 298 -87 594 -365 1163 -832 1702 -55 63 -115 144 -134
179 -18 36 -54 85 -80 110 -36 36 -81 114 -209 356 -434 824 -664 1212 -934
1574 -331 444 -683 780 -1116 1066 -418 276 -973 529 -1405 640 -271 69 -504
98 -806 99 l-226 1 -106 195 c-428 791 -657 1440 -752 2135 -23 164 -31 487
-16 612 107 876 812 1530 1751 1626 92 10 308 5 425 -8z"/>
</g>
</svg>
