<?xml version="1.0" standalone="no"?>
<!DOCTYPE svg PUBLIC "-//W3C//DTD SVG 20010904//EN"
 "http://www.w3.org/TR/2001/REC-SVG-20010904/DTD/svg10.dtd">
<svg version="1.0" xmlns="http://www.w3.org/2000/svg"
 viewBox="0 0 2600.000000 2600.000000"
 preserveAspectRatio="xMidYMid meet">
<metadata>
Created by potrace 1.15, written by Peter Selinger 2001-2017
</metadata>
<g transform="translate(0.000000,2600.000000) scale(0.100000,-0.100000)"
fill="#000000" stroke="none">
<path d="M9130 21844 c-288 -25 -435 -48 -665 -104 -797 -195 -1598 -670
-2162 -1282 -589 -638 -901 -1358 -904 -2083 l0 -150 -72 -57 c-109 -87 -332
-298 -463 -438 -367 -392 -643 -786 -864 -1235 -270 -547 -416 -1070 -482
-1725 -19 -188 -16 -745 5 -950 51 -488 144 -924 297 -1380 444 -1332 1326
-2584 2480 -3521 125 -102 313 -243 430 -324 47 -32 87 -60 89 -61 2 -2 -32
-56 -76 -121 -366 -541 -537 -1019 -520 -1453 15 -399 175 -743 488 -1051 877
-864 2923 -1398 5824 -1520 149 -6 509 -13 800 -14 292 -2 559 -8 595 -13 71
-11 677 0 1010 18 2186 117 3945 499 4965 1078 121 69 350 222 445 298 377
303 604 671 661 1073 16 117 6 398 -20 521 -71 344 -231 692 -492 1075 -37 55
-79 111 -93 124 l-25 24 52 36 c325 228 716 594 989 926 669 813 1115 1809
1312 2925 80 452 110 804 110 1290 0 348 -11 570 -40 820 -11 101 -20 137 -45
188 l-31 63 73 106 c303 446 494 913 563 1378 160 1079 -222 2374 -981 3326
-135 169 -423 457 -573 573 -380 294 -746 465 -1155 537 -110 20 -164 23 -355
23 -191 0 -245 -3 -355 -23 -226 -40 -437 -108 -658 -213 l-107 -51 -143 139
c-534 525 -1086 817 -1712 906 -136 19 -475 16 -613 -6 -466 -73 -921 -279
-1313 -594 -48 -38 -92 -72 -98 -76 -7 -5 -38 18 -79 59 -421 422 -947 667
-1607 747 -151 18 -579 15 -760 -6 -497 -57 -1009 -192 -1542 -407 l-172 -70
-78 66 c-384 324 -838 520 -1363 590 -111 15 -477 27 -570 19z m415 -898 c681
-99 1240 -451 1716 -1081 469 -622 758 -1376 820 -2142 14 -181 6 -572 -15
-733 -106 -779 -419 -1425 -950 -1955 -258 -257 -560 -474 -887 -635 l-86 -43
-134 100 c-177 133 -294 213 -477 326 l-151 94 157 135 c489 419 810 803 1007
1203 112 228 177 440 206 668 17 139 7 431 -20 572 -66 354 -213 693 -462
1065 -103 156 -178 247 -295 361 -317 306 -700 478 -1194 535 -176 20 -516 15
-710 -11 -556 -73 -1228 -299 -1769 -594 -62 -34 -115 -60 -118 -58 -8 9 49
262 83 369 68 211 178 424 315 611 85 117 315 353 439 451 521 414 1335 729
2010 780 101 7 414 -4 515 -18z m3905 -101 c732 -112 1335 -516 1837 -1230
610 -867 870 -2048 697 -3159 -99 -633 -503 -1259 -1145 -1772 -117 -93 -400
-282 -537 -359 -348 -193 -750 -334 -1112 -390 -141 -22 -468 -31 -601 -16
-392 45 -722 187 -1022 442 -5 4 51 67 125 140 191 191 325 354 475 579 826
1235 858 2999 83 4565 -139 280 -324 587 -491 813 -39 51 -73 100 -75 107 -5
13 101 54 321 125 236 76 569 146 805 169 136 14 514 5 640 -14z m3930 -34
c559 -112 1079 -546 1505 -1256 381 -635 647 -1443 731 -2220 23 -219 23 -589
0 -740 -70 -447 -270 -880 -598 -1293 -112 -140 -404 -439 -540 -550 -432
-356 -941 -620 -1422 -738 -197 -48 -331 -66 -546 -71 -297 -8 -504 21 -744
103 -97 34 -285 120 -354 164 l-33 21 173 172 c634 629 1053 1348 1192 2047
52 263 61 369 61 740 0 367 -7 457 -61 765 -121 697 -431 1451 -871 2120 -80
121 -103 163 -96 175 19 29 188 161 317 247 271 181 567 298 838 333 106 13
337 3 448 -19z m3221 -816 c611 -113 1155 -606 1554 -1407 406 -817 573 -1836
410 -2513 -74 -310 -236 -636 -455 -917 -90 -115 -364 -389 -489 -487 -476
-376 -1031 -611 -1596 -677 -169 -20 -478 -14 -625 11 -139 23 -304 68 -426
116 l-106 41 93 86 c667 605 1166 1402 1358 2167 69 275 91 453 98 787 11 528
-60 1000 -230 1518 -116 354 -314 780 -494 1063 -24 37 -43 69 -43 71 0 3 46
23 103 45 151 59 299 95 477 115 66 8 287 -4 371 -19z m-12071 -1366 c626 -64
1089 -402 1385 -1014 144 -297 187 -503 154 -741 -36 -260 -187 -548 -420
-799 -225 -244 -452 -430 -955 -782 -127 -89 -247 -179 -266 -201 -150 -166
-156 -414 -13 -539 23 -21 112 -74 196 -118 959 -499 1527 -1003 1841 -1633
176 -351 268 -711 297 -1164 11 -170 23 -214 78 -292 40 -56 135 -120 205
-136 208 -50 411 47 463 222 19 64 19 157 0 368 -65 742 -276 1320 -678 1858
-54 73 -97 135 -95 137 1 1 49 29 106 60 l103 57 112 -109 c62 -60 144 -134
182 -165 362 -288 772 -460 1221 -513 146 -17 452 -20 594 -5 521 54 1075 250
1585 559 l118 72 41 -31 c105 -80 314 -212 432 -272 383 -196 765 -287 1202
-288 423 0 854 91 1278 270 111 47 362 171 442 219 l53 31 62 -44 c462 -326
1097 -494 1690 -447 724 58 1422 353 2063 872 l71 58 7 -76 c15 -177 1 -622
-29 -933 -99 -1018 -410 -1943 -909 -2705 -366 -557 -857 -1035 -1409 -1368
-129 -78 -372 -203 -532 -272 -149 -66 -211 -108 -262 -183 -146 -214 -53
-543 172 -603 98 -27 190 1 499 149 90 43 141 63 143 55 2 -6 45 -74 94 -150
257 -394 368 -745 329 -1049 -29 -233 -127 -428 -309 -617 -246 -256 -589
-457 -1090 -638 -931 -337 -2429 -560 -4066 -605 -220 -6 -257 -5 -301 10 -68
22 -104 23 -519 7 -549 -21 -1386 -9 -2040 29 -1966 115 -3414 446 -4167 952
-347 232 -559 520 -609 827 -15 96 -12 273 6 371 41 210 154 469 308 704 71
107 80 117 102 112 66 -17 115 -17 176 -2 168 43 289 194 297 373 7 156 -47
241 -217 340 -685 398 -1108 719 -1606 1217 -524 525 -926 1077 -1250 1721
-348 691 -559 1380 -654 2145 -67 537 -36 1000 99 1478 225 797 741 1545 1506
2185 323 269 618 461 1002 651 608 299 1200 435 1682 385z"/>
</g>
</svg>
