<?xml version="1.0" standalone="no"?>
<!DOCTYPE svg PUBLIC "-//W3C//DTD SVG 20010904//EN"
 "http://www.w3.org/TR/2001/REC-SVG-20010904/DTD/svg10.dtd">
<svg version="1.0" xmlns="http://www.w3.org/2000/svg"
 viewBox="0 0 2600.000000 2600.000000"
 preserveAspectRatio="xMidYMid meet">
<metadata>
Created by potrace 1.15, written by Peter Selinger 2001-2017
</metadata>
<g transform="translate(0.000000,2600.000000) scale(0.100000,-0.100000)"
fill="#000000" stroke="none">
<path d="M15150 23800 c-1111 -105 -1912 -622 -2509 -1618 -376 -629 -647
-1430 -836 -2477 l-8 -40 -14 70 c-394 1938 -1156 3218 -2240 3764 -276 139
-555 225 -903 278 -146 22 -677 25 -840 5 -626 -77 -1072 -225 -1464 -487
-604 -402 -984 -1065 -1111 -1940 -39 -268 -49 -418 -49 -735 0 -575 69 -1124
225 -1795 265 -1144 792 -2422 1344 -3261 l92 -141 -110 -84 c-371 -281 -774
-679 -1064 -1051 -478 -612 -834 -1312 -1054 -2073 -162 -559 -200 -1086 -119
-1677 109 -790 445 -1673 993 -2608 451 -770 945 -1462 1374 -1924 l120 -130
-58 -113 c-114 -225 -183 -429 -221 -648 -17 -102 -19 -146 -15 -290 8 -223
34 -341 118 -524 240 -522 861 -958 1813 -1276 858 -285 2039 -488 3321 -570
481 -30 640 -36 1200 -41 352 -2 602 -9 654 -16 64 -9 179 -9 490 1 2146 64
3968 422 4996 983 562 306 916 676 1048 1093 45 145 60 267 54 453 -5 177 -19
261 -68 432 -73 254 -263 625 -445 869 -30 40 -54 73 -54 75 0 2 42 35 94 74
269 203 587 502 798 752 680 807 1121 1820 1288 2955 80 547 93 1171 35 1715
-14 131 -31 202 -59 245 -12 19 -8 30 41 110 143 234 264 521 333 788 86 337
104 494 104 912 0 295 -3 363 -22 510 -178 1355 -893 2434 -1845 2784 -351
130 -773 155 -1159 71 -51 -11 -97 -20 -103 -20 -5 0 -21 21 -35 47 -14 26
-69 114 -122 194 -238 360 -510 639 -828 849 -74 49 -143 95 -154 103 -18 12
-18 18 18 165 324 1349 339 2407 46 3292 -99 299 -231 574 -399 828 -405 612
-1060 988 -1931 1107 -136 19 -617 28 -760 15z m-6528 -695 c435 -57 792 -236
1132 -565 707 -686 1196 -1992 1425 -3815 72 -569 109 -1101 120 -1745 5 -288
12 -434 20 -454 l12 -29 -68 6 c-338 31 -1190 32 -1518 2 -758 -70 -1439 -262
-2097 -591 -92 -46 -170 -84 -172 -84 -2 0 -47 66 -99 148 -621 972 -1122
2200 -1341 3292 -83 413 -115 688 -123 1060 -12 555 56 978 223 1383 224 544
624 942 1185 1180 258 110 599 196 864 220 107 10 336 5 437 -8z m7128 -65
c468 -61 897 -250 1261 -556 384 -324 602 -780 686 -1434 24 -188 24 -735 0
-970 -28 -266 -74 -566 -132 -855 -50 -251 -117 -540 -126 -550 -3 -2 -25 1
-49 6 -181 41 -507 59 -720 40 -396 -35 -743 -134 -1125 -321 -746 -364 -1417
-1000 -1887 -1788 -71 -119 -203 -377 -250 -489 l-26 -62 -84 35 c-216 92
-666 221 -935 270 -57 10 -103 22 -103 27 0 5 11 23 25 41 58 76 58 74 66 671
8 649 21 909 70 1410 97 1000 311 1894 634 2640 169 390 414 824 594 1050 363
456 925 767 1511 834 52 6 111 13 130 15 60 7 371 -2 460 -14z m1570 -5100
c389 -48 715 -240 993 -585 454 -563 768 -1567 768 -2455 0 -421 -59 -762
-197 -1140 -54 -147 -204 -442 -292 -575 -449 -676 -1165 -1151 -1982 -1315
-211 -42 -340 -55 -570 -54 -384 1 -695 72 -1010 231 -176 89 -300 176 -437
306 -108 104 -243 264 -243 290 0 8 7 21 16 28 9 8 42 48 74 89 309 406 447
863 410 1360 -45 611 -280 1102 -703 1469 -53 46 -97 90 -97 96 0 25 83 222
155 370 170 348 362 615 639 890 574 571 1323 912 2196 998 78 8 200 6 280 -3z
m2845 -1454 c382 -77 704 -308 957 -686 351 -528 554 -1398 510 -2188 -44
-769 -216 -1208 -641 -1633 -722 -720 -1931 -1010 -2805 -673 -102 39 -307
143 -349 177 l-29 23 113 57 c917 468 1539 1305 1784 2398 85 380 119 699 118
1134 0 483 -47 836 -168 1254 -19 69 -32 128 -28 132 30 29 403 32 538 5z
m-9523 -716 c1305 -49 2467 -354 3033 -795 99 -78 237 -220 294 -304 210 -309
212 -678 4 -1083 -187 -366 -499 -718 -853 -960 -265 -182 -625 -354 -1029
-490 -520 -175 -1058 -290 -2086 -448 -181 -28 -351 -57 -377 -66 -131 -43
-218 -199 -205 -368 11 -140 29 -170 226 -366 189 -188 285 -301 403 -475 271
-397 434 -866 478 -1375 6 -69 15 -158 20 -198 21 -156 114 -265 268 -312 208
-65 423 36 472 220 15 53 8 225 -16 406 -86 669 -302 1218 -691 1757 -34 48
-63 91 -63 96 0 4 66 19 148 35 1273 237 2323 597 2987 1026 50 32 95 60 101
62 6 2 48 -44 94 -101 660 -820 1708 -1122 2962 -854 l166 35 104 -104 c393
-392 871 -625 1448 -704 153 -22 545 -24 695 -5 510 65 958 212 1410 464 140
78 418 265 543 366 62 50 115 91 118 91 8 0 4 -456 -6 -605 -110 -1681 -820
-3068 -1965 -3841 -207 -140 -401 -245 -688 -374 -76 -34 -135 -68 -166 -96
-230 -207 -134 -641 152 -680 80 -11 174 20 447 150 l95 45 83 -126 c138 -213
227 -405 273 -593 32 -131 32 -348 1 -462 -91 -333 -363 -613 -819 -841 -831
-417 -2271 -674 -4125 -736 -243 -9 -261 -8 -320 11 -55 17 -79 19 -183 13
-479 -25 -1396 -23 -1960 5 -1921 96 -3308 398 -4020 875 -152 102 -246 184
-342 299 -231 276 -289 592 -173 950 42 127 34 120 123 106 80 -13 171 -4 239
24 185 78 270 318 180 509 -29 63 -102 159 -162 212 -18 17 -65 62 -104 100
-41 40 -94 81 -123 95 -44 21 -61 38 -110 110 -88 130 -187 244 -317 365 -409
382 -984 1172 -1464 2011 -603 1054 -749 2157 -448 3379 193 783 578 1447
1173 2026 940 913 2318 1480 3703 1522 47 2 92 4 100 5 8 1 131 -3 272 -8z"/>
</g>
</svg>
