<?xml version="1.0" standalone="no"?>
<!DOCTYPE svg PUBLIC "-//W3C//DTD SVG 20010904//EN"
 "http://www.w3.org/TR/2001/REC-SVG-20010904/DTD/svg10.dtd">
<svg version="1.0" xmlns="http://www.w3.org/2000/svg"
 viewBox="0 0 2600.000000 2600.000000"
 preserveAspectRatio="xMidYMid meet">
<metadata>
Created by potrace 1.15, written by Peter Selinger 2001-2017
</metadata>
<g transform="translate(0.000000,2600.000000) scale(0.100000,-0.100000)"
fill="#000000" stroke="none">
<path d="M12720 20702 c-36 -9 -85 -29 -110 -44 -56 -32 -131 -111 -159 -166
-52 -102 -51 -74 -51 -1253 0 -699 4 -1116 10 -1150 24 -128 115 -244 237
-302 63 -30 75 -32 174 -32 101 0 108 1 181 38 81 40 152 107 189 179 50 98
49 74 49 1255 0 778 -3 1118 -11 1155 -35 163 -172 296 -339 328 -70 13 -93
12 -170 -8z"/>
<path d="M9436 19824 c-226 -72 -354 -332 -270 -544 10 -25 265 -472 566 -995
415 -718 560 -962 596 -998 219 -224 591 -136 692 164 28 83 25 209 -8 282
-12 26 -266 471 -564 989 -596 1034 -588 1021 -715 1080 -58 28 -81 33 -158
35 -61 2 -106 -2 -139 -13z"/>
<path d="M15965 19826 c-72 -23 -128 -58 -179 -110 -71 -74 -1147 -1939 -1172
-2032 -24 -91 -15 -194 25 -279 133 -285 515 -330 706 -83 62 80 1118 1920
1138 1983 28 88 20 202 -21 289 -54 114 -146 196 -261 230 -64 19 -180 20
-236 2z"/>
<path d="M7033 17430 c-189 -67 -307 -263 -275 -456 16 -96 61 -182 126 -241
37 -33 348 -218 1002 -595 522 -301 969 -554 994 -563 146 -52 308 -15 427 98
122 115 157 292 93 462 -18 46 -39 76 -89 125 -61 59 -153 115 -1016 611 -523
301 -972 554 -998 563 -65 22 -197 20 -264 -4z"/>
<path d="M18335 17431 c-70 -26 -1930 -1101 -1982 -1146 -188 -161 -192 -454
-8 -624 112 -103 280 -137 421 -83 90 34 1933 1103 1988 1154 111 99 160 263
122 404 -33 124 -134 242 -243 285 -80 31 -227 36 -298 10z"/>
<path d="M12640 17310 c-1448 -74 -2713 -1032 -3175 -2402 -132 -393 -186
-724 -186 -1138 1 -357 38 -630 132 -963 342 -1209 1326 -2164 2544 -2471 440
-110 927 -135 1375 -70 1299 189 2404 1102 2834 2344 81 231 134 457 172 730
26 179 26 691 0 870 -121 857 -486 1570 -1101 2150 -583 550 -1393 903 -2170
945 -222 11 -283 12 -425 5z m370 -840 c484 -37 918 -186 1313 -450 572 -384
986 -983 1132 -1640 53 -235 60 -308 60 -605 0 -319 -11 -417 -75 -671 -147
-578 -486 -1096 -960 -1465 -405 -315 -878 -505 -1390 -559 -126 -13 -410 -13
-546 1 -739 73 -1431 464 -1885 1066 -290 385 -472 840 -530 1328 -17 145 -15
474 5 629 79 619 355 1172 802 1606 141 138 227 207 391 317 494 330 1093 487
1683 443z"/>
<path d="M6170 14171 c-131 -42 -235 -149 -274 -280 -34 -115 -11 -255 59
-356 68 -100 168 -158 301 -175 52 -7 446 -10 1164 -8 l1085 3 57 22 c152 58
251 176 278 335 30 174 -68 357 -236 439 l-69 34 -1155 2 c-1083 2 -1158 1
-1210 -16z"/>
<path d="M17086 14170 c-320 -103 -392 -527 -123 -730 26 -20 75 -47 110 -60
l62 -25 1085 -3 c724 -2 1112 1 1165 8 156 20 275 104 338 238 30 63 32 74 32
177 0 104 -2 114 -32 176 -42 86 -138 177 -220 211 l-58 23 -1150 2 c-1104 2
-1152 1 -1209 -17z"/>
<path d="M8949 11990 c-26 -4 -69 -18 -95 -29 -27 -12 -472 -266 -988 -564
-763 -440 -950 -552 -992 -594 -165 -163 -160 -430 11 -592 128 -121 302 -150
458 -78 91 42 1908 1096 1946 1128 200 173 188 490 -24 651 -84 63 -216 96
-316 78z"/>
<path d="M16570 11994 c-151 -28 -264 -114 -327 -250 -25 -53 -28 -70 -28
-164 0 -138 22 -196 109 -286 57 -59 128 -102 1001 -606 517 -298 965 -552
995 -564 155 -62 326 -25 448 98 159 159 160 418 3 578 -52 53 -2 23 -1126
672 -462 267 -863 492 -890 501 -55 18 -146 28 -185 21z"/>
<path d="M10540 10379 c-76 -15 -164 -65 -217 -123 -33 -37 -212 -337 -589
-992 -298 -516 -547 -950 -554 -964 -37 -71 -49 -184 -29 -269 25 -108 118
-229 215 -279 174 -89 394 -42 516 110 38 47 1081 1848 1126 1944 24 53 27 70
27 165 0 101 -1 108 -38 181 -85 173 -269 264 -457 227z"/>
<path d="M14925 10376 c-152 -37 -260 -137 -305 -284 -31 -98 -22 -220 20
-302 46 -91 1091 -1893 1115 -1925 129 -169 380 -207 562 -86 166 111 229 335
145 513 -16 35 -271 482 -566 993 -404 701 -549 942 -584 978 -54 55 -143 102
-221 117 -67 12 -102 12 -166 -4z"/>
<path d="M12710 9785 c-154 -44 -269 -170 -300 -330 -8 -43 -10 -367 -8 -1175
3 -1060 4 -1117 22 -1165 45 -120 146 -222 259 -262 75 -26 214 -24 287 5 112
45 196 129 242 242 l23 55 0 1155 c0 1086 -1 1158 -18 1207 -39 110 -139 213
-250 255 -69 27 -186 32 -257 13z"/>
</g>
</svg>
